<?xml version="1.0" encoding="UTF-8"?>
<svg width="366px" height="80px" viewBox="0 0 366 80" version="1.1" xmlns="http://www.w3.org/2000/svg" xmlns:xlink="http://www.w3.org/1999/xlink">
    <!-- Generator: Sketch 40.3 (33839) - http://www.bohemiancoding.com/sketch -->
    <title>Group 3</title>
    <desc>Created with Sketch.</desc>
    <defs>
        <rect id="path-1" x="0" y="0" width="47" height="80" rx="23.5"></rect>
        <mask id="mask-2" maskContentUnits="userSpaceOnUse" maskUnits="objectBoundingBox" x="0" y="0" width="47" height="80" fill="white">
            <use xlink:href="#path-1"></use>
        </mask>
    </defs>
    <g id="Page-1" stroke="none" stroke-width="1" fill="none" fill-rule="evenodd">
        <g id="Group-3">
            <use id="Rectangle" stroke="#9B9B9B" mask="url(#mask-2)" stroke-width="6" xlink:href="#path-1"></use>
            <g id="Group-2" transform="translate(18.000000, 17.000000)" stroke="#9B9B9B" stroke-width="3" stroke-linecap="round" stroke-linejoin="round">
                <path d="M5.5,2 L5.5,18" id="Path-2"></path>
                <path d="M5.5,0 L0.5,5.5" id="Path-2-Copy"></path>
                <path d="M5.5,0 L10.5,5.5" id="Path-2-Copy-2"></path>
                <path d="M5.5,15 L0.5,20.5" id="Path-2-Copy-4" transform="translate(3.000000, 18.000000) scale(1, -1) translate(-3.000000, -18.000000) "></path>
                <path d="M5.5,15 L10.5,20.5" id="Path-2-Copy-3" transform="translate(8.000000, 18.000000) scale(1, -1) translate(-8.000000, -18.000000) "></path>
            </g>
            <g id="Group" transform="translate(71.000000, 14.000000)">
                <path d="M9.85,6.62 L9.85,8.93 C9.4899982,8.6899988 8.9900032,8.57 8.35,8.57 C7.6299964,8.57 6.9900028,8.7899978 6.43,9.23 C5.8699972,9.6700022 5.4800011,10.2799961 5.26,11.06 L5.26,20 L3.01,20 L3.01,6.68 L5.26,6.68 L5.26,8.42 C5.5600015,7.8399971 6.00499705,7.3600019 6.595,6.98 C7.18500295,6.5999981 7.8399964,6.41 8.56,6.41 C9.1400029,6.41 9.5699986,6.4799993 9.85,6.62 L9.85,6.62 Z M20.65,16.01 L22.78,16.01 C22.5399988,17.3100065 21.9500047,18.3449962 21.01,19.115 C20.0699953,19.8850039 18.8700073,20.27 17.41,20.27 C15.5899909,20.27 14.1150056,19.6350064 12.985,18.365 C11.8549943,17.0949936 11.29,15.4300103 11.29,13.37 C11.29,11.3499899 11.8499944,9.68500655 12.97,8.375 C14.0900056,7.06499345 15.549991,6.41 17.35,6.41 C19.1300089,6.41 20.5099951,7.00499405 21.49,8.195 C22.4700049,9.38500595 22.96,10.9699901 22.96,12.95 L22.96,13.76 L13.54,13.76 C13.5600001,15.160007 13.9249964,16.2749958 14.635,17.105 C15.3450035,17.9350041 16.2699943,18.35 17.41,18.35 C18.2500042,18.35 18.9549971,18.145002 19.525,17.735 C20.0950028,17.324998 20.4699991,16.7500037 20.65,16.01 L20.65,16.01 Z M17.38,8.33 C16.379995,8.33 15.5400034,8.6599967 14.86,9.32 C14.1799966,9.9800033 13.7600008,10.8899942 13.6,12.05 L20.68,12.05 C20.6599999,10.9899947 20.3700028,10.1050036 19.81,9.395 C19.2499972,8.68499645 18.4400053,8.33 17.38,8.33 L17.38,8.33 Z M35.62,20 L33.46,20 L33.46,19.01 C33.1799986,19.3100015 32.7100033,19.5899987 32.05,19.85 C31.3899967,20.1100013 30.6900037,20.24 29.95,20.24 C28.549993,20.24 27.3750047,19.8500039 26.425,19.07 C25.4749952,18.2899961 25,17.2600064 25,15.98 C25,14.7599939 25.4899951,13.7600039 26.47,12.98 C27.4500049,12.1999961 28.6599928,11.81 30.1,11.81 C30.7600033,11.81 31.4099968,11.9199989 32.05,12.14 C32.6900032,12.3600011 33.1599985,12.6099986 33.46,12.89 L33.46,11.21 C33.46,10.3499957 33.2050025,9.6600026 32.695,9.14 C32.1849974,8.6199974 31.4600047,8.36 30.52,8.36 C29.119993,8.36 28.2100021,8.9699939 27.79,10.19 L25.57,10.19 C25.7900011,9.0699944 26.3549954,8.1600035 27.265,7.46 C28.1750045,6.7599965 29.2699936,6.41 30.55,6.41 C32.1300079,6.41 33.3699955,6.8299958 34.27,7.67 C35.1700045,8.5100042 35.62,9.6599927 35.62,11.12 L35.62,20 Z M33.46,16.7 L33.46,15.32 C33.259999,14.8399976 32.8650029,14.4450016 32.275,14.135 C31.684997,13.8249985 31.0400035,13.67 30.34,13.67 C29.4599956,13.67 28.7100031,13.869998 28.09,14.27 C27.4699969,14.670002 27.16,15.2399963 27.16,15.98 C27.16,16.7400038 27.4699969,17.324998 28.09,17.735 C28.7100031,18.1450021 29.4599956,18.35 30.34,18.35 C31.0400035,18.35 31.684997,18.1950016 32.275,17.885 C32.8650029,17.5749985 33.259999,17.1800024 33.46,16.7 L33.46,16.7 Z M38.5,13.34 C38.5,11.2799897 39.0599944,9.6100064 40.18,8.33 C41.3000056,7.0499936 42.759991,6.41 44.56,6.41 C46.0200073,6.41 47.2149953,6.7999961 48.145,7.58 C49.0750046,8.3600039 49.6599988,9.3999935 49.9,10.7 L47.59,10.7 C47.4299992,9.9799964 47.0850026,9.41500205 46.555,9.005 C46.0249973,8.59499795 45.360004,8.39 44.56,8.39 C43.4199943,8.39 42.5050034,8.8499954 41.815,9.77 C41.1249965,10.6900046 40.78,11.8799927 40.78,13.34 C40.78,14.8000073 41.1249965,15.9899954 41.815,16.91 C42.5050034,17.8300046 43.4199943,18.29 44.56,18.29 C45.360004,18.29 46.0249973,18.085002 46.555,17.675 C47.0850026,17.264998 47.4299992,16.7000036 47.59,15.98 L49.9,15.98 C49.6599988,17.2800065 49.0750046,18.3199961 48.145,19.1 C47.2149953,19.8800039 46.0200073,20.27 44.56,20.27 C42.759991,20.27 41.3000056,19.6300064 40.18,18.35 C39.0599944,17.0699936 38.5,15.4000103 38.5,13.34 L38.5,13.34 Z M53.56,16.64 L53.56,8.6 L51.4,8.6 L51.4,6.68 L53.56,6.68 L53.56,3.17 L55.81,3.17 L55.81,6.68 L59.02,6.68 L59.02,8.6 L55.81,8.6 L55.81,16.4 C55.81,17.6400062 56.3999941,18.26 57.58,18.26 C58.2000031,18.26 58.7799973,18.0800018 59.32,17.72 L59.32,19.82 C58.7599972,20.1200015 58.0600042,20.27 57.22,20.27 C56.0999944,20.27 55.2100033,19.965003 54.55,19.355 C53.8899967,18.744997 53.56,17.840006 53.56,16.64 L53.56,16.64 Z M61.18,13.22 L61.18,11.12 L68.41,11.12 L68.41,13.22 L61.18,13.22 Z M70.72,16.34 L73.06,16.34 C73.4800021,17.7000068 74.5299916,18.38 76.21,18.38 C77.0300041,18.38 77.6899975,18.2150017 78.19,17.885 C78.6900025,17.5549984 78.94,17.0600033 78.94,16.4 C78.94,15.4999955 78.2800066,14.8800017 76.96,14.54 L74.32,13.85 C72.1799893,13.3099973 71.11,12.140009 71.11,10.34 C71.11,9.1799942 71.5599955,8.23500365 72.46,7.505 C73.3600045,6.77499635 74.4999931,6.41 75.88,6.41 C77.3200072,6.41 78.4799956,6.7399967 79.36,7.4 C80.2400044,8.0600033 80.7999988,8.989994 81.04,10.19 L78.79,10.19 C78.389998,8.9299937 77.4100078,8.3 75.85,8.3 C75.1499965,8.3 74.5500025,8.46499835 74.05,8.795 C73.5499975,9.12500165 73.3,9.5999969 73.3,10.22 C73.3,10.6600022 73.4449985,11.0049988 73.735,11.255 C74.0250014,11.5050013 74.4999967,11.7199991 75.16,11.9 L77.74,12.53 C80.0000113,13.130003 81.13,14.3699906 81.13,16.25 C81.13,17.4900062 80.6700046,18.4699964 79.75,19.19 C78.8299954,19.9100036 77.6400073,20.27 76.18,20.27 C74.7199927,20.27 73.4950049,19.9200035 72.505,19.22 C71.514995,18.5199965 70.920001,17.5600061 70.72,16.34 L70.72,16.34 Z M83.29,13.34 C83.29,11.2799897 83.8499944,9.6100064 84.97,8.33 C86.0900056,7.0499936 87.549991,6.41 89.35,6.41 C90.8100073,6.41 92.0049953,6.7999961 92.935,7.58 C93.8650046,8.3600039 94.4499988,9.3999935 94.69,10.7 L92.38,10.7 C92.2199992,9.9799964 91.8750026,9.41500205 91.345,9.005 C90.8149973,8.59499795 90.150004,8.39 89.35,8.39 C88.2099943,8.39 87.2950034,8.8499954 86.605,9.77 C85.9149965,10.6900046 85.57,11.8799927 85.57,13.34 C85.57,14.8000073 85.9149965,15.9899954 86.605,16.91 C87.2950034,17.8300046 88.2099943,18.29 89.35,18.29 C90.150004,18.29 90.8149973,18.085002 91.345,17.675 C91.8750026,17.264998 92.2199992,16.7000036 92.38,15.98 L94.69,15.98 C94.4499988,17.2800065 93.8650046,18.3199961 92.935,19.1 C92.0049953,19.8800039 90.8100073,20.27 89.35,20.27 C87.549991,20.27 86.0900056,19.6300064 84.97,18.35 C83.8499944,17.0699936 83.29,15.4000103 83.29,13.34 L83.29,13.34 Z M105.7,6.62 L105.28,8.93 C104.959998,8.6899988 104.480003,8.57 103.84,8.57 C103.119996,8.57 102.445003,8.7899978 101.815,9.23 C101.184997,9.6700022 100.690002,10.2799961 100.33,11.06 L98.74,20 L96.49,20 L98.83,6.68 L101.08,6.68 L100.78,8.42 C101.160002,7.8399971 101.684997,7.3600019 102.355,6.98 C103.025003,6.5999981 103.719996,6.41 104.44,6.41 C105.040003,6.41 105.459999,6.4799993 105.7,6.62 L105.7,6.62 Z M111.61,18.29 C112.930007,18.29 114.014996,17.7200057 114.865,16.58 C115.715004,15.4399943 116.14,13.9800089 116.14,12.2 C116.14,11.0399942 115.855003,10.1150035 115.285,9.425 C114.714997,8.73499655 113.930005,8.39 112.93,8.39 C111.629993,8.39 110.550004,8.9599943 109.69,10.1 C108.829996,11.2400057 108.4,12.6999911 108.4,14.48 C108.4,15.6400058 108.684997,16.5649966 109.255,17.255 C109.825003,17.9450035 110.609995,18.29 111.61,18.29 L111.61,18.29 Z M111.61,20.27 C109.889991,20.27 108.545005,19.7450052 107.575,18.695 C106.604995,17.6449948 106.12,16.2400088 106.12,14.48 C106.12,12.1599884 106.779993,10.2350077 108.1,8.705 C109.420007,7.17499235 111.03999,6.41 112.96,6.41 C114.660008,6.41 115.994995,6.93499475 116.965,7.985 C117.935005,9.03500525 118.42,10.4399912 118.42,12.2 C118.42,14.5200116 117.760007,16.4449923 116.44,17.975 C115.119993,19.5050076 113.510009,20.27 111.61,20.27 L111.61,20.27 Z M125.98,0.5 L122.56,20 L120.31,20 L123.73,0.5 L125.98,0.5 Z M131.17,6.68 L128.83,20 L126.58,20 L128.92,6.68 L131.17,6.68 Z M132.22,2.66 C132.22,3.060002 132.075001,3.3999986 131.785,3.68 C131.494999,3.9600014 131.150002,4.1 130.75,4.1 C130.349998,4.1 130.010001,3.9600014 129.73,3.68 C129.449999,3.3999986 129.31,3.060002 129.31,2.66 C129.31,2.259998 129.449999,1.9200014 129.73,1.64 C130.010001,1.3599986 130.349998,1.22 130.75,1.22 C131.150002,1.22 131.494999,1.3599986 131.785,1.64 C132.075001,1.9200014 132.22,2.259998 132.22,2.66 L132.22,2.66 Z" id="react-scroli" fill="#4D4D4D"></path>
                <path d="M4.676,35.176 L5.86,35.176 L9.7,45 L8.42,45 L7.284,42.04 L3.236,42.04 L2.116,45 L0.836,45 L4.676,35.176 Z M5.252,36.744 L3.652,40.936 L6.852,40.936 L5.252,36.744 Z M14.052,43.048 L15.3,43.048 C15.5240011,43.773337 16.0839955,44.136 16.98,44.136 C17.4173355,44.136 17.769332,44.0480009 18.036,43.872 C18.302668,43.6959991 18.436,43.4320018 18.436,43.08 C18.436,42.5999976 18.0840035,42.2693342 17.38,42.088 L15.972,41.72 C14.830661,41.4319986 14.26,40.8080048 14.26,39.848 C14.26,39.2293302 14.4999976,38.7253353 14.98,38.336 C15.4600024,37.9466647 16.0679963,37.752 16.804,37.752 C17.5720038,37.752 18.1906643,37.9279982 18.66,38.28 C19.1293357,38.6320018 19.4279994,39.1279968 19.556,39.768 L18.356,39.768 C18.1426656,39.0959966 17.6200042,38.76 16.788,38.76 C16.4146648,38.76 16.094668,38.8479991 15.828,39.024 C15.561332,39.2000009 15.428,39.4533317 15.428,39.784 C15.428,40.0186678 15.5053326,40.202666 15.66,40.336 C15.8146674,40.469334 16.0679982,40.5839995 16.42,40.68 L17.796,41.016 C19.0013394,41.3360016 19.604,41.9973283 19.604,43 C19.604,43.6613366 19.3586691,44.1839981 18.868,44.568 C18.3773309,44.9520019 17.7426706,45.144 16.964,45.144 C16.1853294,45.144 15.5320026,44.9573352 15.004,44.584 C14.4759974,44.2106648 14.1586672,43.6986699 14.052,43.048 L14.052,43.048 Z M22.468,37.896 L22.468,45 L21.268,45 L21.268,37.896 L22.468,37.896 Z M22.644,35.752 C22.644,35.9653344 22.5666674,36.1466659 22.412,36.296 C22.2573326,36.4453341 22.0733344,36.52 21.86,36.52 C21.6466656,36.52 21.4653341,36.4453341 21.316,36.296 C21.1666659,36.1466659 21.092,35.9653344 21.092,35.752 C21.092,35.5386656 21.1666659,35.3573341 21.316,35.208 C21.4653341,35.0586659 21.6466656,34.984 21.86,34.984 C22.0733344,34.984 22.2573326,35.0586659 22.412,35.208 C22.5666674,35.3573341 22.644,35.5386656 22.644,35.752 L22.644,35.752 Z M29.652,38.888 C30.185336,38.1306629 30.9053288,37.752 31.812,37.752 C32.5266702,37.752 33.0786647,37.981331 33.468,38.44 C33.8573353,38.898669 34.052,39.5173294 34.052,40.296 L34.052,45 L32.836,45 L32.836,40.488 C32.836,39.9759974 32.7240011,39.5733348 32.5,39.28 C32.2759989,38.9866652 31.9400022,38.84 31.492,38.84 C31.1293315,38.84 30.8040014,38.9546655 30.516,39.184 C30.2279986,39.4133345 30.0306672,39.7199981 29.924,40.104 L29.924,45 L28.724,45 L28.724,40.488 C28.724,39.9759974 28.6120011,39.5733348 28.388,39.28 C28.1639989,38.9866652 27.8280022,38.84 27.38,38.84 C27.0173315,38.84 26.6920014,38.9546655 26.404,39.184 C26.1159986,39.4133345 25.9186672,39.7199981 25.812,40.104 L25.812,45 L24.612,45 L24.612,37.896 L25.812,37.896 L25.812,38.728 C26.2173354,38.0773301 26.857329,37.752 27.732,37.752 C28.6280045,37.752 29.2679981,38.1306629 29.652,38.888 L29.652,38.888 Z M37.284,44.168 L37.284,47.72 L36.084,47.72 L36.084,37.896 L37.284,37.896 L37.284,38.728 C37.4866677,38.4506653 37.7666649,38.2186676 38.124,38.032 C38.4813351,37.8453324 38.8679979,37.752 39.284,37.752 C40.2866717,37.752 41.0706638,38.1066631 41.636,38.816 C42.2013362,39.5253369 42.484,40.4026614 42.484,41.448 C42.484,42.4933386 42.2013362,43.3706631 41.636,44.08 C41.0706638,44.7893369 40.2866717,45.144 39.284,45.144 C38.8679979,45.144 38.4813351,45.0506676 38.124,44.864 C37.7666649,44.6773324 37.4866677,44.4453347 37.284,44.168 L37.284,44.168 Z M37.284,40.008 L37.284,42.888 C37.4653342,43.2506685 37.718665,43.535999 38.044,43.744 C38.369335,43.952001 38.7239981,44.056 39.108,44.056 C39.7693366,44.056 40.2946647,43.8133358 40.684,43.328 C41.0733353,42.8426642 41.268,42.2160038 41.268,41.448 C41.268,40.6799962 41.0733353,40.0533358 40.684,39.568 C40.2946647,39.0826642 39.7693366,38.84 39.108,38.84 C38.7239981,38.84 38.369335,38.943999 38.044,39.152 C37.718665,39.360001 37.4653342,39.6453315 37.284,40.008 L37.284,40.008 Z M45.316,34.6 L45.316,45 L44.116,45 L44.116,34.6 L45.316,34.6 Z M51.94,42.872 L53.076,42.872 C52.9479994,43.5653368 52.6333358,44.1173313 52.132,44.528 C51.6306642,44.9386687 50.9906706,45.144 50.212,45.144 C49.2413285,45.144 48.4546697,44.8053367 47.852,44.128 C47.2493303,43.4506633 46.948,42.5626722 46.948,41.464 C46.948,40.3866613 47.2466637,39.4986702 47.844,38.8 C48.4413363,38.1013298 49.2199952,37.752 50.18,37.752 C51.1293381,37.752 51.8653307,38.0693302 52.388,38.704 C52.9106693,39.3386698 53.172,40.1839947 53.172,41.24 L53.172,41.672 L48.148,41.672 C48.1586667,42.4186704 48.3533314,43.0133311 48.732,43.456 C49.1106686,43.8986689 49.603997,44.12 50.212,44.12 C50.6600022,44.12 51.0359985,44.0106678 51.34,43.792 C51.6440015,43.5733322 51.8439995,43.2666686 51.94,42.872 L51.94,42.872 Z M50.196,38.776 C49.662664,38.776 49.2146685,38.9519982 48.852,39.304 C48.4893315,39.6560018 48.2653338,40.1413302 48.18,40.76 L51.956,40.76 C51.9453333,40.1946638 51.7906682,39.7226686 51.492,39.344 C51.1933318,38.9653314 50.7613362,38.776 50.196,38.776 L50.196,38.776 Z M62.996,45 L62.996,44.168 C62.803999,44.4453347 62.5266685,44.6773324 62.164,44.864 C61.8013315,45.0506676 61.4120021,45.144 60.996,45.144 C59.9933283,45.144 59.2093362,44.7920035 58.644,44.088 C58.0786638,43.3839965 57.796,42.5040053 57.796,41.448 C57.796,40.4026614 58.0786638,39.5253369 58.644,38.816 C59.2093362,38.1066631 59.9933283,37.752 60.996,37.752 C61.4120021,37.752 61.8013315,37.8453324 62.164,38.032 C62.5266685,38.2186676 62.803999,38.4506653 62.996,38.728 L62.996,34.6 L64.212,34.6 L64.212,45 L62.996,45 Z M62.996,42.888 L62.996,40.008 C62.8146658,39.6453315 62.561335,39.360001 62.236,39.152 C61.910665,38.943999 61.5560019,38.84 61.172,38.84 C60.5106634,38.84 59.9853353,39.0826642 59.596,39.568 C59.2066647,40.0533358 59.012,40.6799962 59.012,41.448 C59.012,42.2160038 59.2066647,42.8426642 59.596,43.328 C59.9853353,43.8133358 60.5106634,44.056 61.172,44.056 C61.5560019,44.056 61.910665,43.952001 62.236,43.744 C62.561335,43.535999 62.8146658,43.2506685 62.996,42.888 L62.996,42.888 Z M70.82,42.872 L71.956,42.872 C71.8279994,43.5653368 71.5133358,44.1173313 71.012,44.528 C70.5106642,44.9386687 69.8706706,45.144 69.092,45.144 C68.1213285,45.144 67.3346697,44.8053367 66.732,44.128 C66.1293303,43.4506633 65.828,42.5626722 65.828,41.464 C65.828,40.3866613 66.1266637,39.4986702 66.724,38.8 C67.3213363,38.1013298 68.0999952,37.752 69.06,37.752 C70.0093381,37.752 70.7453307,38.0693302 71.268,38.704 C71.7906693,39.3386698 72.052,40.1839947 72.052,41.24 L72.052,41.672 L67.028,41.672 C67.0386667,42.4186704 67.2333314,43.0133311 67.612,43.456 C67.9906686,43.8986689 68.483997,44.12 69.092,44.12 C69.5400022,44.12 69.9159985,44.0106678 70.22,43.792 C70.5240015,43.5733322 70.7239995,43.2666686 70.82,42.872 L70.82,42.872 Z M69.076,38.776 C68.542664,38.776 68.0946685,38.9519982 67.732,39.304 C67.3693315,39.6560018 67.1453338,40.1413302 67.06,40.76 L70.836,40.76 C70.8253333,40.1946638 70.6706682,39.7226686 70.372,39.344 C70.0733318,38.9653314 69.6413362,38.776 69.076,38.776 L69.076,38.776 Z M73.172,41.448 C73.172,40.3493278 73.4706637,39.4586701 74.068,38.776 C74.6653363,38.0933299 75.4439952,37.752 76.404,37.752 C77.1826706,37.752 77.8199975,37.9599979 78.316,38.376 C78.8120025,38.7920021 79.1239994,39.3466632 79.252,40.04 L78.02,40.04 C77.9346662,39.6559981 77.7506681,39.3546678 77.468,39.136 C77.1853319,38.9173322 76.8306688,38.808 76.404,38.808 C75.795997,38.808 75.3080018,39.0533309 74.94,39.544 C74.5719982,40.0346691 74.388,40.6693294 74.388,41.448 C74.388,42.2266706 74.5719982,42.8613309 74.94,43.352 C75.3080018,43.8426691 75.795997,44.088 76.404,44.088 C76.8306688,44.088 77.1853319,43.9786678 77.468,43.76 C77.7506681,43.5413322 77.9346662,43.2400019 78.02,42.856 L79.252,42.856 C79.1239994,43.5493368 78.8120025,44.1039979 78.316,44.52 C77.8199975,44.9360021 77.1826706,45.144 76.404,45.144 C75.4439952,45.144 74.6653363,44.8026701 74.068,44.12 C73.4706637,43.4373299 73.172,42.5466722 73.172,41.448 L73.172,41.448 Z M86.804,41.448 C86.804,42.5360054 86.5026697,43.4239966 85.9,44.112 C85.2973303,44.8000034 84.5106715,45.144 83.54,45.144 C82.5693285,45.144 81.7826697,44.8000034 81.18,44.112 C80.5773303,43.4239966 80.276,42.5360054 80.276,41.448 C80.276,40.3599946 80.5773303,39.4720034 81.18,38.784 C81.7826697,38.0959966 82.5693285,37.752 83.54,37.752 C84.5106715,37.752 85.2973303,38.0959966 85.9,38.784 C86.5026697,39.4720034 86.804,40.3599946 86.804,41.448 L86.804,41.448 Z M85.588,41.448 C85.588,40.6586627 85.4040018,40.0213358 85.036,39.536 C84.6679982,39.0506642 84.1693365,38.808 83.54,38.808 C82.9106635,38.808 82.4120018,39.0506642 82.044,39.536 C81.6759982,40.0213358 81.492,40.6586627 81.492,41.448 C81.492,42.2373373 81.6759982,42.8746642 82.044,43.36 C82.4120018,43.8453358 82.9106635,44.088 83.54,44.088 C84.1693365,44.088 84.6679982,43.8453358 85.036,43.36 C85.4040018,42.8746642 85.588,42.2373373 85.588,41.448 L85.588,41.448 Z M92.084,37.864 L92.084,39.096 C91.891999,38.9679994 91.625335,38.904 91.284,38.904 C90.8999981,38.904 90.5586682,39.0213322 90.26,39.256 C89.9613318,39.4906678 89.7533339,39.8159979 89.636,40.232 L89.636,45 L88.436,45 L88.436,37.896 L89.636,37.896 L89.636,38.824 C89.7960008,38.5146651 90.0333318,38.2586677 90.348,38.056 C90.6626682,37.8533323 91.0119981,37.752 91.396,37.752 C91.7053349,37.752 91.9346659,37.789333 92.084,37.864 L92.084,37.864 Z M98.532,45 L97.38,45 L97.38,44.472 C97.2306659,44.6320008 96.9800018,44.7813326 96.628,44.92 C96.2759982,45.0586674 95.9026686,45.128 95.508,45.128 C94.7613296,45.128 94.1346692,44.9200021 93.628,44.504 C93.1213308,44.0879979 92.868,43.5386701 92.868,42.856 C92.868,42.2053301 93.1293307,41.6720021 93.652,41.256 C94.1746693,40.8399979 94.8199962,40.632 95.588,40.632 C95.9400018,40.632 96.286665,40.6906661 96.628,40.808 C96.969335,40.9253339 97.2199992,41.0586659 97.38,41.208 L97.38,40.312 C97.38,39.853331 97.2440014,39.4853347 96.972,39.208 C96.6999986,38.9306653 96.3133358,38.792 95.812,38.792 C95.0653296,38.792 94.5800011,39.1173301 94.356,39.768 L93.172,39.768 C93.2893339,39.1706637 93.5906642,38.6853352 94.076,38.312 C94.5613358,37.9386648 95.1453299,37.752 95.828,37.752 C96.6706709,37.752 97.3319976,37.9759978 97.812,38.424 C98.2920024,38.8720022 98.532,39.4853294 98.532,40.264 L98.532,45 Z M97.38,43.24 L97.38,42.504 C97.2733328,42.2479987 97.0626682,42.0373342 96.748,41.872 C96.4333318,41.7066658 96.0893352,41.624 95.716,41.624 C95.2466643,41.624 94.8466683,41.7306656 94.516,41.944 C94.1853317,42.1573344 94.02,42.4613314 94.02,42.856 C94.02,43.2613354 94.1853317,43.5733322 94.516,43.792 C94.8466683,44.0106678 95.2466643,44.12 95.716,44.12 C96.0893352,44.12 96.4333318,44.0373342 96.748,43.872 C97.0626682,43.7066658 97.2733328,43.4960013 97.38,43.24 L97.38,43.24 Z M100.868,43.208 L100.868,38.92 L99.716,38.92 L99.716,37.896 L100.868,37.896 L100.868,36.024 L102.068,36.024 L102.068,37.896 L103.78,37.896 L103.78,38.92 L102.068,38.92 L102.068,43.08 C102.068,43.7413366 102.382664,44.072 103.012,44.072 C103.342668,44.072 103.651999,43.976001 103.94,43.784 L103.94,44.904 C103.641332,45.0640008 103.268002,45.144 102.82,45.144 C102.222664,45.144 101.748002,44.981335 101.396,44.656 C101.043998,44.330665 100.868,43.8480032 100.868,43.208 L100.868,43.208 Z M111.54,41.448 C111.54,42.5360054 111.23867,43.4239966 110.636,44.112 C110.03333,44.8000034 109.246672,45.144 108.276,45.144 C107.305328,45.144 106.51867,44.8000034 105.916,44.112 C105.31333,43.4239966 105.012,42.5360054 105.012,41.448 C105.012,40.3599946 105.31333,39.4720034 105.916,38.784 C106.51867,38.0959966 107.305328,37.752 108.276,37.752 C109.246672,37.752 110.03333,38.0959966 110.636,38.784 C111.23867,39.4720034 111.54,40.3599946 111.54,41.448 L111.54,41.448 Z M110.324,41.448 C110.324,40.6586627 110.140002,40.0213358 109.772,39.536 C109.403998,39.0506642 108.905336,38.808 108.276,38.808 C107.646664,38.808 107.148002,39.0506642 106.78,39.536 C106.411998,40.0213358 106.228,40.6586627 106.228,41.448 C106.228,42.2373373 106.411998,42.8746642 106.78,43.36 C107.148002,43.8453358 107.646664,44.088 108.276,44.088 C108.905336,44.088 109.403998,43.8453358 109.772,43.36 C110.140002,42.8746642 110.324,42.2373373 110.324,41.448 L110.324,41.448 Z M116.82,37.864 L116.82,39.096 C116.627999,38.9679994 116.361335,38.904 116.02,38.904 C115.635998,38.904 115.294668,39.0213322 114.996,39.256 C114.697332,39.4906678 114.489334,39.8159979 114.372,40.232 L114.372,45 L113.172,45 L113.172,37.896 L114.372,37.896 L114.372,38.824 C114.532001,38.5146651 114.769332,38.2586677 115.084,38.056 C115.398668,37.8533323 115.747998,37.752 116.132,37.752 C116.441335,37.752 116.670666,37.789333 116.82,37.864 L116.82,37.864 Z M122.18,43.208 L122.18,38.92 L121.028,38.92 L121.028,37.896 L122.18,37.896 L122.18,36.024 L123.38,36.024 L123.38,37.896 L125.092,37.896 L125.092,38.92 L123.38,38.92 L123.38,43.08 C123.38,43.7413366 123.694664,44.072 124.324,44.072 C124.654668,44.072 124.963999,43.976001 125.252,43.784 L125.252,44.904 C124.953332,45.0640008 124.580002,45.144 124.132,45.144 C123.534664,45.144 123.060002,44.981335 122.708,44.656 C122.355998,44.330665 122.18,43.8480032 122.18,43.208 L122.18,43.208 Z M132.852,41.448 C132.852,42.5360054 132.55067,43.4239966 131.948,44.112 C131.34533,44.8000034 130.558672,45.144 129.588,45.144 C128.617328,45.144 127.83067,44.8000034 127.228,44.112 C126.62533,43.4239966 126.324,42.5360054 126.324,41.448 C126.324,40.3599946 126.62533,39.4720034 127.228,38.784 C127.83067,38.0959966 128.617328,37.752 129.588,37.752 C130.558672,37.752 131.34533,38.0959966 131.948,38.784 C132.55067,39.4720034 132.852,40.3599946 132.852,41.448 L132.852,41.448 Z M131.636,41.448 C131.636,40.6586627 131.452002,40.0213358 131.084,39.536 C130.715998,39.0506642 130.217336,38.808 129.588,38.808 C128.958664,38.808 128.460002,39.0506642 128.092,39.536 C127.723998,40.0213358 127.54,40.6586627 127.54,41.448 C127.54,42.2373373 127.723998,42.8746642 128.092,43.36 C128.460002,43.8453358 128.958664,44.088 129.588,44.088 C130.217336,44.088 130.715998,43.8453358 131.084,43.36 C131.452002,42.8746642 131.636,42.2373373 131.636,41.448 L131.636,41.448 Z M142.532,37.896 L143.988,43.32 L145.556,37.896 L146.724,37.896 L144.628,45 L143.46,45 L141.988,39.608 L140.5,45 L139.332,45 L137.236,37.896 L138.436,37.896 L140.004,43.32 L141.46,37.896 L142.532,37.896 Z M153.188,45 L152.036,45 L152.036,44.472 C151.886666,44.6320008 151.636002,44.7813326 151.284,44.92 C150.931998,45.0586674 150.558669,45.128 150.164,45.128 C149.41733,45.128 148.790669,44.9200021 148.284,44.504 C147.777331,44.0879979 147.524,43.5386701 147.524,42.856 C147.524,42.2053301 147.785331,41.6720021 148.308,41.256 C148.830669,40.8399979 149.475996,40.632 150.244,40.632 C150.596002,40.632 150.942665,40.6906661 151.284,40.808 C151.625335,40.9253339 151.875999,41.0586659 152.036,41.208 L152.036,40.312 C152.036,39.853331 151.900001,39.4853347 151.628,39.208 C151.355999,38.9306653 150.969336,38.792 150.468,38.792 C149.72133,38.792 149.236001,39.1173301 149.012,39.768 L147.828,39.768 C147.945334,39.1706637 148.246664,38.6853352 148.732,38.312 C149.217336,37.9386648 149.80133,37.752 150.484,37.752 C151.326671,37.752 151.987998,37.9759978 152.468,38.424 C152.948002,38.8720022 153.188,39.4853294 153.188,40.264 L153.188,45 Z M152.036,43.24 L152.036,42.504 C151.929333,42.2479987 151.718668,42.0373342 151.404,41.872 C151.089332,41.7066658 150.745335,41.624 150.372,41.624 C149.902664,41.624 149.502668,41.7306656 149.172,41.944 C148.841332,42.1573344 148.676,42.4613314 148.676,42.856 C148.676,43.2613354 148.841332,43.5733322 149.172,43.792 C149.502668,44.0106678 149.902664,44.12 150.372,44.12 C150.745335,44.12 151.089332,44.0373342 151.404,43.872 C151.718668,43.7066658 151.929333,43.4960013 152.036,43.24 L152.036,43.24 Z M155.524,43.208 L155.524,38.92 L154.372,38.92 L154.372,37.896 L155.524,37.896 L155.524,36.024 L156.724,36.024 L156.724,37.896 L158.436,37.896 L158.436,38.92 L156.724,38.92 L156.724,43.08 C156.724,43.7413366 157.038664,44.072 157.668,44.072 C157.998668,44.072 158.307999,43.976001 158.596,43.784 L158.596,44.904 C158.297332,45.0640008 157.924002,45.144 157.476,45.144 C156.878664,45.144 156.404002,44.981335 156.052,44.656 C155.699998,44.330665 155.524,43.8480032 155.524,43.208 L155.524,43.208 Z M159.668,41.448 C159.668,40.3493278 159.966664,39.4586701 160.564,38.776 C161.161336,38.0933299 161.939995,37.752 162.9,37.752 C163.678671,37.752 164.315998,37.9599979 164.812,38.376 C165.308002,38.7920021 165.619999,39.3466632 165.748,40.04 L164.516,40.04 C164.430666,39.6559981 164.246668,39.3546678 163.964,39.136 C163.681332,38.9173322 163.326669,38.808 162.9,38.808 C162.291997,38.808 161.804002,39.0533309 161.436,39.544 C161.067998,40.0346691 160.884,40.6693294 160.884,41.448 C160.884,42.2266706 161.067998,42.8613309 161.436,43.352 C161.804002,43.8426691 162.291997,44.088 162.9,44.088 C163.326669,44.088 163.681332,43.9786678 163.964,43.76 C164.246668,43.5413322 164.430666,43.2400019 164.516,42.856 L165.748,42.856 C165.619999,43.5493368 165.308002,44.1039979 164.812,44.52 C164.315998,44.9360021 163.678671,45.144 162.9,45.144 C161.939995,45.144 161.161336,44.8026701 160.564,44.12 C159.966664,43.4373299 159.668,42.5466722 159.668,41.448 L159.668,41.448 Z M167.316,45 L167.316,34.6 L168.516,34.6 L168.516,38.792 C168.740001,38.4933318 169.035998,38.2453343 169.404,38.048 C169.772002,37.8506657 170.174664,37.752 170.612,37.752 C171.401337,37.752 172.014664,37.9866643 172.452,38.456 C172.889336,38.9253357 173.108,39.5546627 173.108,40.344 L173.108,45 L171.892,45 L171.892,40.536 C171.892,40.0239974 171.761335,39.6160015 171.5,39.312 C171.238665,39.0079985 170.846669,38.856 170.324,38.856 C169.907998,38.856 169.534668,38.9813321 169.204,39.232 C168.873332,39.4826679 168.644001,39.7999981 168.516,40.184 L168.516,45 L167.316,45 Z M182.228,34.616 L182.228,35.704 C182.025332,35.5759994 181.774668,35.512 181.476,35.512 C181.113332,35.512 180.828001,35.6239989 180.62,35.848 C180.411999,36.0720011 180.308,36.3919979 180.308,36.808 L180.308,37.896 L181.908,37.896 L181.908,38.92 L180.308,38.92 L180.308,45 L179.124,45 L179.124,38.92 L177.924,38.92 L177.924,37.896 L179.124,37.896 L179.124,36.712 C179.124,36.0186632 179.326665,35.4693354 179.732,35.064 C180.137335,34.6586646 180.659997,34.456 181.3,34.456 C181.662668,34.456 181.971999,34.5093328 182.228,34.616 L182.228,34.616 Z M189.204,41.448 C189.204,42.5360054 188.90267,43.4239966 188.3,44.112 C187.69733,44.8000034 186.910672,45.144 185.94,45.144 C184.969328,45.144 184.18267,44.8000034 183.58,44.112 C182.97733,43.4239966 182.676,42.5360054 182.676,41.448 C182.676,40.3599946 182.97733,39.4720034 183.58,38.784 C184.18267,38.0959966 184.969328,37.752 185.94,37.752 C186.910672,37.752 187.69733,38.0959966 188.3,38.784 C188.90267,39.4720034 189.204,40.3599946 189.204,41.448 L189.204,41.448 Z M187.988,41.448 C187.988,40.6586627 187.804002,40.0213358 187.436,39.536 C187.067998,39.0506642 186.569336,38.808 185.94,38.808 C185.310664,38.808 184.812002,39.0506642 184.444,39.536 C184.075998,40.0213358 183.892,40.6586627 183.892,41.448 C183.892,42.2373373 184.075998,42.8746642 184.444,43.36 C184.812002,43.8453358 185.310664,44.088 185.94,44.088 C186.569336,44.088 187.067998,43.8453358 187.436,43.36 C187.804002,42.8746642 187.988,42.2373373 187.988,41.448 L187.988,41.448 Z M194.484,37.864 L194.484,39.096 C194.291999,38.9679994 194.025335,38.904 193.684,38.904 C193.299998,38.904 192.958668,39.0213322 192.66,39.256 C192.361332,39.4906678 192.153334,39.8159979 192.036,40.232 L192.036,45 L190.836,45 L190.836,37.896 L192.036,37.896 L192.036,38.824 C192.196001,38.5146651 192.433332,38.2586677 192.748,38.056 C193.062668,37.8533323 193.411998,37.752 193.796,37.752 C194.105335,37.752 194.334666,37.789333 194.484,37.864 L194.484,37.864 Z M198.916,43.048 L200.164,43.048 C200.388001,43.773337 200.947996,44.136 201.844,44.136 C202.281336,44.136 202.633332,44.0480009 202.9,43.872 C203.166668,43.6959991 203.3,43.4320018 203.3,43.08 C203.3,42.5999976 202.948004,42.2693342 202.244,42.088 L200.836,41.72 C199.694661,41.4319986 199.124,40.8080048 199.124,39.848 C199.124,39.2293302 199.363998,38.7253353 199.844,38.336 C200.324002,37.9466647 200.931996,37.752 201.668,37.752 C202.436004,37.752 203.054664,37.9279982 203.524,38.28 C203.993336,38.6320018 204.291999,39.1279968 204.42,39.768 L203.22,39.768 C203.006666,39.0959966 202.484004,38.76 201.652,38.76 C201.278665,38.76 200.958668,38.8479991 200.692,39.024 C200.425332,39.2000009 200.292,39.4533317 200.292,39.784 C200.292,40.0186678 200.369333,40.202666 200.524,40.336 C200.678667,40.469334 200.931998,40.5839995 201.284,40.68 L202.66,41.016 C203.865339,41.3360016 204.468,41.9973283 204.468,43 C204.468,43.6613366 204.222669,44.1839981 203.732,44.568 C203.241331,44.9520019 202.606671,45.144 201.828,45.144 C201.049329,45.144 200.396003,44.9573352 199.868,44.584 C199.339997,44.2106648 199.022667,43.6986699 198.916,43.048 L198.916,43.048 Z M205.62,41.448 C205.62,40.3493278 205.918664,39.4586701 206.516,38.776 C207.113336,38.0933299 207.891995,37.752 208.852,37.752 C209.630671,37.752 210.267998,37.9599979 210.764,38.376 C211.260002,38.7920021 211.571999,39.3466632 211.7,40.04 L210.468,40.04 C210.382666,39.6559981 210.198668,39.3546678 209.916,39.136 C209.633332,38.9173322 209.278669,38.808 208.852,38.808 C208.243997,38.808 207.756002,39.0533309 207.388,39.544 C207.019998,40.0346691 206.836,40.6693294 206.836,41.448 C206.836,42.2266706 207.019998,42.8613309 207.388,43.352 C207.756002,43.8426691 208.243997,44.088 208.852,44.088 C209.278669,44.088 209.633332,43.9786678 209.916,43.76 C210.198668,43.5413322 210.382666,43.2400019 210.468,42.856 L211.7,42.856 C211.571999,43.5493368 211.260002,44.1039979 210.764,44.52 C210.267998,44.9360021 209.630671,45.144 208.852,45.144 C207.891995,45.144 207.113336,44.8026701 206.516,44.12 C205.918664,43.4373299 205.62,42.5466722 205.62,41.448 L205.62,41.448 Z M216.916,37.864 L216.916,39.096 C216.723999,38.9679994 216.457335,38.904 216.116,38.904 C215.731998,38.904 215.390668,39.0213322 215.092,39.256 C214.793332,39.4906678 214.585334,39.8159979 214.468,40.232 L214.468,45 L213.268,45 L213.268,37.896 L214.468,37.896 L214.468,38.824 C214.628001,38.5146651 214.865332,38.2586677 215.18,38.056 C215.494668,37.8533323 215.843998,37.752 216.228,37.752 C216.537335,37.752 216.766666,37.789333 216.916,37.864 L216.916,37.864 Z M224.212,41.448 C224.212,42.5360054 223.91067,43.4239966 223.308,44.112 C222.70533,44.8000034 221.918672,45.144 220.948,45.144 C219.977328,45.144 219.19067,44.8000034 218.588,44.112 C217.98533,43.4239966 217.684,42.5360054 217.684,41.448 C217.684,40.3599946 217.98533,39.4720034 218.588,38.784 C219.19067,38.0959966 219.977328,37.752 220.948,37.752 C221.918672,37.752 222.70533,38.0959966 223.308,38.784 C223.91067,39.4720034 224.212,40.3599946 224.212,41.448 L224.212,41.448 Z M222.996,41.448 C222.996,40.6586627 222.812002,40.0213358 222.444,39.536 C222.075998,39.0506642 221.577336,38.808 220.948,38.808 C220.318664,38.808 219.820002,39.0506642 219.452,39.536 C219.083998,40.0213358 218.9,40.6586627 218.9,41.448 C218.9,42.2373373 219.083998,42.8746642 219.452,43.36 C219.820002,43.8453358 220.318664,44.088 220.948,44.088 C221.577336,44.088 222.075998,43.8453358 222.444,43.36 C222.812002,42.8746642 222.996,42.2373373 222.996,41.448 L222.996,41.448 Z M227.044,34.6 L227.044,45 L225.844,45 L225.844,34.6 L227.044,34.6 Z M230.388,34.6 L230.388,45 L229.188,45 L229.188,34.6 L230.388,34.6 Z M237.268,44.168 L237.268,45 L236.052,45 L236.052,34.6 L237.268,34.6 L237.268,38.728 C237.460001,38.4506653 237.737332,38.2186676 238.1,38.032 C238.462668,37.8453324 238.851998,37.752 239.268,37.752 C240.270672,37.752 241.054664,38.1066631 241.62,38.816 C242.185336,39.5253369 242.468,40.4026614 242.468,41.448 C242.468,42.5040053 242.185336,43.3839965 241.62,44.088 C241.054664,44.7920035 240.270672,45.144 239.268,45.144 C238.851998,45.144 238.462668,45.0506676 238.1,44.864 C237.737332,44.6773324 237.460001,44.4453347 237.268,44.168 L237.268,44.168 Z M237.268,40.008 L237.268,42.888 C237.449334,43.2506685 237.702665,43.535999 238.028,43.744 C238.353335,43.952001 238.707998,44.056 239.092,44.056 C239.753337,44.056 240.278665,43.8133358 240.668,43.328 C241.057335,42.8426642 241.252,42.2160038 241.252,41.448 C241.252,40.6799962 241.057335,40.0533358 240.668,39.568 C240.278665,39.0826642 239.753337,38.84 239.092,38.84 C238.707998,38.84 238.353335,38.943999 238.028,39.152 C237.702665,39.360001 237.449334,39.6453315 237.268,40.008 L237.268,40.008 Z M248.612,42.872 L249.748,42.872 C249.619999,43.5653368 249.305336,44.1173313 248.804,44.528 C248.302664,44.9386687 247.662671,45.144 246.884,45.144 C245.913328,45.144 245.12667,44.8053367 244.524,44.128 C243.92133,43.4506633 243.62,42.5626722 243.62,41.464 C243.62,40.3866613 243.918664,39.4986702 244.516,38.8 C245.113336,38.1013298 245.891995,37.752 246.852,37.752 C247.801338,37.752 248.537331,38.0693302 249.06,38.704 C249.582669,39.3386698 249.844,40.1839947 249.844,41.24 L249.844,41.672 L244.82,41.672 C244.830667,42.4186704 245.025331,43.0133311 245.404,43.456 C245.782669,43.8986689 246.275997,44.12 246.884,44.12 C247.332002,44.12 247.707998,44.0106678 248.012,43.792 C248.316002,43.5733322 248.516,43.2666686 248.612,42.872 L248.612,42.872 Z M246.868,38.776 C246.334664,38.776 245.886668,38.9519982 245.524,39.304 C245.161332,39.6560018 244.937334,40.1413302 244.852,40.76 L248.628,40.76 C248.617333,40.1946638 248.462668,39.7226686 248.164,39.344 C247.865332,38.9653314 247.433336,38.776 246.868,38.776 L246.868,38.776 Z M251.444,45 L251.444,34.6 L252.644,34.6 L252.644,38.792 C252.868001,38.4933318 253.163998,38.2453343 253.532,38.048 C253.900002,37.8506657 254.302664,37.752 254.74,37.752 C255.529337,37.752 256.142664,37.9866643 256.58,38.456 C257.017336,38.9253357 257.236,39.5546627 257.236,40.344 L257.236,45 L256.02,45 L256.02,40.536 C256.02,40.0239974 255.889335,39.6160015 255.628,39.312 C255.366665,39.0079985 254.974669,38.856 254.452,38.856 C254.035998,38.856 253.662668,38.9813321 253.332,39.232 C253.001332,39.4826679 252.772001,39.7999981 252.644,40.184 L252.644,45 L251.444,45 Z M264.42,45 L263.268,45 L263.268,44.472 C263.118666,44.6320008 262.868002,44.7813326 262.516,44.92 C262.163998,45.0586674 261.790669,45.128 261.396,45.128 C260.64933,45.128 260.022669,44.9200021 259.516,44.504 C259.009331,44.0879979 258.756,43.5386701 258.756,42.856 C258.756,42.2053301 259.017331,41.6720021 259.54,41.256 C260.062669,40.8399979 260.707996,40.632 261.476,40.632 C261.828002,40.632 262.174665,40.6906661 262.516,40.808 C262.857335,40.9253339 263.107999,41.0586659 263.268,41.208 L263.268,40.312 C263.268,39.853331 263.132001,39.4853347 262.86,39.208 C262.587999,38.9306653 262.201336,38.792 261.7,38.792 C260.95333,38.792 260.468001,39.1173301 260.244,39.768 L259.06,39.768 C259.177334,39.1706637 259.478664,38.6853352 259.964,38.312 C260.449336,37.9386648 261.03333,37.752 261.716,37.752 C262.558671,37.752 263.219998,37.9759978 263.7,38.424 C264.180002,38.8720022 264.42,39.4853294 264.42,40.264 L264.42,45 Z M263.268,43.24 L263.268,42.504 C263.161333,42.2479987 262.950668,42.0373342 262.636,41.872 C262.321332,41.7066658 261.977335,41.624 261.604,41.624 C261.134664,41.624 260.734668,41.7306656 260.404,41.944 C260.073332,42.1573344 259.908,42.4613314 259.908,42.856 C259.908,43.2613354 260.073332,43.5733322 260.404,43.792 C260.734668,44.0106678 261.134664,44.12 261.604,44.12 C261.977335,44.12 262.321332,44.0373342 262.636,43.872 C262.950668,43.7066658 263.161333,43.4960013 263.268,43.24 L263.268,43.24 Z M269.492,45 L268.308,45 L265.556,37.896 L266.852,37.896 L268.932,43.48 L270.996,37.896 L272.26,37.896 L269.492,45 Z M274.82,37.896 L274.82,45 L273.62,45 L273.62,37.896 L274.82,37.896 Z M274.996,35.752 C274.996,35.9653344 274.918667,36.1466659 274.764,36.296 C274.609333,36.4453341 274.425334,36.52 274.212,36.52 C273.998666,36.52 273.817334,36.4453341 273.668,36.296 C273.518666,36.1466659 273.444,35.9653344 273.444,35.752 C273.444,35.5386656 273.518666,35.3573341 273.668,35.208 C273.817334,35.0586659 273.998666,34.984 274.212,34.984 C274.425334,34.984 274.609333,35.0586659 274.764,35.208 C274.918667,35.3573341 274.996,35.5386656 274.996,35.752 L274.996,35.752 Z M282.98,41.448 C282.98,42.5360054 282.67867,43.4239966 282.076,44.112 C281.47333,44.8000034 280.686672,45.144 279.716,45.144 C278.745328,45.144 277.95867,44.8000034 277.356,44.112 C276.75333,43.4239966 276.452,42.5360054 276.452,41.448 C276.452,40.3599946 276.75333,39.4720034 277.356,38.784 C277.95867,38.0959966 278.745328,37.752 279.716,37.752 C280.686672,37.752 281.47333,38.0959966 282.076,38.784 C282.67867,39.4720034 282.98,40.3599946 282.98,41.448 L282.98,41.448 Z M281.764,41.448 C281.764,40.6586627 281.580002,40.0213358 281.212,39.536 C280.843998,39.0506642 280.345336,38.808 279.716,38.808 C279.086664,38.808 278.588002,39.0506642 278.22,39.536 C277.851998,40.0213358 277.668,40.6586627 277.668,41.448 C277.668,42.2373373 277.851998,42.8746642 278.22,43.36 C278.588002,43.8453358 279.086664,44.088 279.716,44.088 C280.345336,44.088 280.843998,43.8453358 281.212,43.36 C281.580002,42.8746642 281.764,42.2373373 281.764,41.448 L281.764,41.448 Z M288.26,37.864 L288.26,39.096 C288.067999,38.9679994 287.801335,38.904 287.46,38.904 C287.075998,38.904 286.734668,39.0213322 286.436,39.256 C286.137332,39.4906678 285.929334,39.8159979 285.812,40.232 L285.812,45 L284.612,45 L284.612,37.896 L285.812,37.896 L285.812,38.824 C285.972001,38.5146651 286.209332,38.2586677 286.524,38.056 C286.838668,37.8533323 287.187998,37.752 287.572,37.752 C287.881335,37.752 288.110666,37.789333 288.26,37.864 L288.26,37.864 Z M289.108,43.048 L290.356,43.048 C290.580001,43.773337 291.139996,44.136 292.036,44.136 C292.473336,44.136 292.825332,44.0480009 293.092,43.872 C293.358668,43.6959991 293.492,43.4320018 293.492,43.08 C293.492,42.5999976 293.140004,42.2693342 292.436,42.088 L291.028,41.72 C289.886661,41.4319986 289.316,40.8080048 289.316,39.848 C289.316,39.2293302 289.555998,38.7253353 290.036,38.336 C290.516002,37.9466647 291.123996,37.752 291.86,37.752 C292.628004,37.752 293.246664,37.9279982 293.716,38.28 C294.185336,38.6320018 294.483999,39.1279968 294.612,39.768 L293.412,39.768 C293.198666,39.0959966 292.676004,38.76 291.844,38.76 C291.470665,38.76 291.150668,38.8479991 290.884,39.024 C290.617332,39.2000009 290.484,39.4533317 290.484,39.784 C290.484,40.0186678 290.561333,40.202666 290.716,40.336 C290.870667,40.469334 291.123998,40.5839995 291.476,40.68 L292.852,41.016 C294.057339,41.3360016 294.66,41.9973283 294.66,43 C294.66,43.6613366 294.414669,44.1839981 293.924,44.568 C293.433331,44.9520019 292.798671,45.144 292.02,45.144 C291.241329,45.144 290.588003,44.9573352 290.06,44.584 C289.531997,44.2106648 289.214667,43.6986699 289.108,43.048 L289.108,43.048 Z" id="A-simple-decorator-t" fill="#A0A0A0"></path>
            </g>
        </g>
    </g>
</svg>